# xmcd
#
# Track frame offsets:
#       150
#       21342
#       44295
#       63310
#       86125
#       107760
#       112155
#       137627
#       159370
#       176385
#       195980
#       219692
#
# Disc length: 3089 seconds
#
# Revision: 3
# Processed by: cddbd v1.5.2PL0 Copyright (c) Steve Scherf et al.
# Submitted via: WhereIsIt 3.68
#
DISCID=a40c0f0c
DTITLE=L拘浆 - 回来爱的身边
DYEAR=1992
DGENRE=Other
TTITLE0=醒醒.
TTITLE1=没结果.
TTITLE2=由你开始.
TTITLE3=回来爱的身边.
TTITLE4=躲起来.
TTITLE5=要是有缘 (音乐).
TTITLE6=宠爱.
TTITLE7=暖暖红尘.
TTITLE8=始终一天.
TTITLE9=爱的世界.
TTITLE10=不舍不弃.
TTITLE11=回到爱的世界 (音乐).
EXTD=
EXTT0=
EXTT1=
EXTT2=
EXTT3=
EXTT4=
EXTT5=
EXTT6=
EXTT7=
EXTT8=
EXTT9=
EXTT10=
EXTT11=
PLAYORDER=
